<svg fill="#ffffff" height="200px" width="200px" version="1.1" id="Capa_1" xmlns="http://www.w3.org/2000/svg" xmlns:xlink="http://www.w3.org/1999/xlink" viewBox="0 0 305.755 305.755" xml:space="preserve"><g id="SVGRepo_bgCarrier" stroke-width="0"></g><g id="SVGRepo_tracerCarrier" stroke-linecap="round" stroke-linejoin="round"></g><g id="SVGRepo_iconCarrier"> <g> <path d="M264.017,63.242c-8.605-1.329-16.726,0.199-22.847,3.652c-0.23-1.847-0.503-3.703-1.01-5.563 c-4.196-15.433-16.856-25.789-30.078-25.903C204.976,14.91,190.549,0,173.34,0c-10.773,0-20.518,5.817-27.555,15.193 c-6.658-6.992-15.945-11.371-26.271-11.371c-20.229,0-36.627,16.681-36.627,37.264c0,3.767,0.711,7.33,1.737,10.759 c-16.487,1.916-29.233,13.392-30.197,27.649c-2.897-0.677-5.922-1.144-9.122-1.144c-16.71,0-30.257,10.002-30.257,22.334 c0,12.337,13.546,22.34,30.257,22.34c1.777,0,3.494-0.17,5.186-0.388c2.657,11.839,12.844,20.688,25.072,20.688 c5.737,0,10.988-2.011,15.272-5.295c5.025,14.656,15.949,36.298,37.916,46.366c0,0,0,112.085,0,112.234 c0,3.753,9.267,6.794,20.703,6.794c11.436,0,20.702-3.04,20.702-6.794c0-0.149,0-82.42,0-82.42 c45.858-29.272,49.456-59.877,48.321-73.423c2.787-0.861,5.41-2.199,7.744-4.071c4.698,2.94,10.242,4.698,16.234,4.698 c16.71,0,30.256-13.263,30.256-29.62c0-1.733-0.229-3.404-0.523-5.056c9.71-2.37,17.045-8.531,18.324-16.807 C292.393,77.742,280.534,65.79,264.017,63.242z M98.912,127.786c0.034-0.074,0.079-0.139,0.109-0.209 c5.355,3.817,12.621,6.19,20.653,6.19c3.185,0,6.201-0.468,9.077-1.15v29.661C117.982,156.327,102.858,145.124,98.912,127.786z M170.155,192.471v-33.064c1.657,0.284,3.349,0.478,5.096,0.478c13.352,0,24.475-8.719,27.295-20.364 c1.703,0.846,3.509,1.418,5.375,1.801C207.568,166.329,182.068,185.095,170.155,192.471z"></path> <path d="M111.368,243.071l-11.287-9.967l-11.287,9.967v16.607H71.72v-16.607l-11.286-9.967l-11.286,9.967v16.607h-8.615v11.072 h8.615v13.546h-8.615v11.068h8.615v10.39H71.72v-10.39h17.075v10.39h22.573v-10.39h8.614v-11.068h-8.614V270.75h8.614v-11.072 h-8.614V243.071z M88.794,284.297H71.72V270.75h17.075V284.297z"></path> <path d="M249.754,243.071l-11.288-9.967l-11.287,9.967v16.607h-17.074v-16.607l-11.287-9.967l-11.286,9.967v16.607h-8.614v11.072 h8.614v13.546h-8.614v11.068h8.614v10.39h22.573v-10.39h17.074v10.39h22.574v-10.39h8.614v-11.068h-8.614V270.75h8.614v-11.072 h-8.614V243.071z M227.18,284.297h-17.074V270.75h17.074V284.297z"></path> </g> </g></svg>