<svg fill="#ffffff" height="200px" width="200px" version="1.1" id="Capa_1" xmlns="http://www.w3.org/2000/svg" xmlns:xlink="http://www.w3.org/1999/xlink" viewBox="0 0 313.998 313.998" xml:space="preserve"><g id="SVGRepo_bgCarrier" stroke-width="0"></g><g id="SVGRepo_tracerCarrier" stroke-linecap="round" stroke-linejoin="round"></g><g id="SVGRepo_iconCarrier"> <path d="M234.491,99.302c-38.684-9.347-56.191,6.092-69.291,24.275c8.247-41.529,37.287-59.759,50.189-65.942 c3.844-1.842,5.563-6.383,3.893-10.305c-4.241-9.967-11.515-14.37-17.117-16.316c-4.259-1.479-8.897-1.351-13.07,0.357 C158.4,43.935,148.839,75.016,147.1,103.565c-0.594-2.596-6.498-16.6-17.071-24.107c12.014-13.967,11.982-38.085-6.891-48.277 c-17.397-7.944-26.409-17.872-31.026-26.629c-1.525-2.893-4.57-4.659-7.839-4.546c-3.269,0.113-6.18,2.087-7.503,5.078 c-7.188,16.243-14.802,37.935-11.905,51.956c5.771,27.822,30.357,39.741,53.138,30.965c11.384,3.593,18.235,21.271,18.336,21.444 c-12.149-10.729-28.985-16.87-56.818-10.146c-41.459,10.018-59.424,28.25-57.423,90.672c2.372,73.582,56.808,124.024,93.164,124.024 c12.553,0,28.694-5.179,41.738-5.179c13.046,0,29.197,5.179,41.749,5.179c36.357,0,90.793-50.442,93.152-124.024 C293.905,127.552,275.937,109.32,234.491,99.302z"></path> </g></svg>