<svg fill="#FFFFFF" version="1.1" id="Layer_1" xmlns="http://www.w3.org/2000/svg" xmlns:xlink="http://www.w3.org/1999/xlink" viewBox="0 0 512 512" xml:space="preserve" stroke="#FFFFFF"><g id="SVGRepo_bgCarrier" stroke-width="0"></g><g id="SVGRepo_tracerCarrier" stroke-linecap="round" stroke-linejoin="round"></g><g id="SVGRepo_iconCarrier"> <g> <g> <path d="M504.666,368.067c-19.507-22.497-45.113-38.389-74.049-45.96c-29.583-7.74-60.4-6.114-89.124,4.705 c-28.719,10.818-52.946,29.925-70.061,55.256c-1.966,2.909-3.811,5.879-5.555,8.895v-75.737 c38.375-4.873,68.151-37.705,68.151-77.392v-99.859c21.125-10.41,34.46-26.502,34.46-44.883c0-31.299-38.639-55.976-88.667-57.205 c-0.026-0.128-0.052-0.263-0.079-0.392C276.53,20.257,270.572,0,255.998,0c-14.574,0-20.533,20.257-23.748,35.494 c-0.033,0.158-0.065,0.325-0.098,0.484c-74.89,3.36-134.783,65.331-134.783,141.035c0,5.455,4.422,9.877,9.877,9.877 s9.877-4.422,9.877-9.877c0-14.693,11.953-26.646,26.646-26.646h34.19v87.466c0,0.155,0.016,0.305,0.023,0.459 c0.224,39.476,29.91,72.079,68.139,76.934v75.737c-1.744-3.016-3.589-5.987-5.554-8.895 c-17.115-25.331-41.342-44.439-70.061-55.256c-28.723-10.819-59.54-12.445-89.124-4.705c-28.935,7.571-54.541,23.464-74.049,45.96 c-2.789,3.217-3.203,7.858-1.029,11.518c2.176,3.66,6.454,5.513,10.608,4.602c42.783-9.389,87.196-6.138,128.443,9.397 c40.213,15.147,74.987,41.082,100.765,75.1v33.439c0,5.455,4.422,9.877,9.877,9.877c5.455,0,9.877-4.422,9.877-9.877v-33.439 c25.779-34.019,60.553-59.955,100.766-75.1c41.243-15.537,85.658-18.785,128.442-9.397c4.153,0.911,8.433-0.942,10.608-4.602 C507.87,375.924,507.455,371.283,504.666,368.067z M152.321,375.096c-28.086-10.579-57.528-15.914-87.045-15.914 c-6.516,0-13.04,0.26-19.549,0.781c33.903-23.492,78.104-29.624,117.817-14.666c24.869,9.368,45.844,25.906,60.656,47.829 c8.53,12.626,14.667,26.469,18.241,40.976C217.284,408.155,186.62,388.016,152.321,375.096z M255.998,23.995 c4.22,10.586,9.468,36.001,9.991,74.074c-3.095,0.597-6.427,0.948-9.988,0.948c-3.563,0-6.9-0.351-9.996-0.949 C246.531,59.993,251.779,34.579,255.998,23.995z M143.771,130.61c-6.784,0.002-13.228,1.477-19.042,4.106 c16.14-43.296,56.309-74.983,104.208-78.755c-1.214,9.956-2.04,20.817-2.443,32.178c-1.153-1.336-2.007-2.71-2.531-4.068 c-1.962-5.089-7.68-7.623-12.77-5.662c-5.09,1.963-7.624,7.68-5.662,12.77c6.364,16.503,26.646,27.592,50.468,27.592 c23.816,0,44.094-11.089,50.458-27.592c1.962-5.09-0.572-10.807-5.662-12.77c-5.092-1.962-10.807,0.572-12.77,5.662 c-0.523,1.356-1.375,2.729-2.527,4.064c-0.406-11.432-1.239-22.359-2.466-32.367c17.672,0.915,33.958,5.228,46.445,12.383 c12.237,7.012,19.256,16.102,19.256,24.939c0,8.839-7.019,17.931-19.257,24.945c-14.149,8.11-33.174,12.576-53.565,12.576 c-0.09,0-0.177,0.011-0.266,0.013c-0.089-0.002-0.176-0.013-0.266-0.013H143.771z M256.059,296.116 c-0.019,0-0.037-0.003-0.056-0.003c-0.019,0-0.037,0.003-0.056,0.003c-32.108-0.031-58.22-26.159-58.22-58.272 c0-0.079-0.01-0.155-0.012-0.234v-87.245h77.667c0.089,0,0.177-0.011,0.266-0.013c0.089,0.002,0.176,0.013,0.266,0.013 c13.765,0,26.727-1.784,38.362-4.982v92.461C314.276,269.957,288.164,296.085,256.059,296.116z M359.683,375.096 c-34.3,12.919-64.962,33.058-90.121,59.006c3.573-14.507,9.71-28.35,18.241-40.976c14.811-21.923,35.786-38.461,60.657-47.829 c14.557-5.483,29.709-8.131,44.744-8.131c25.983,0,51.596,7.916,73.072,22.796C430.277,357.08,393.967,362.182,359.683,375.096z"></path> </g> </g> <g> <g> <path d="M285.741,172.853c-5.455,0-9.877,4.422-9.877,9.877v55.11c0,10.953-8.91,19.863-19.863,19.863 c-5.455,0-9.877,4.422-9.877,9.877c0,5.454,4.422,9.877,9.877,9.877c21.845,0,39.617-17.772,39.617-39.617v-55.11 C295.618,177.275,291.197,172.853,285.741,172.853z"></path> </g> </g> </g></svg>