<svg fill="#FFFFFF" version="1.1" id="Layer_1" xmlns="http://www.w3.org/2000/svg" xmlns:xlink="http://www.w3.org/1999/xlink" viewBox="0 0 511.999 511.999" xml:space="preserve"><g id="SVGRepo_bgCarrier" stroke-width="0"></g><g id="SVGRepo_tracerCarrier" stroke-linecap="round" stroke-linejoin="round"></g><g id="SVGRepo_iconCarrier"> <g> <g> <g> <path d="M293.439,98.424c0-22.347-18.181-40.528-40.528-40.528c-22.347,0-40.528,18.181-40.528,40.528 c0,22.347,18.181,40.528,40.528,40.528C275.258,138.952,293.439,120.771,293.439,98.424z M235.542,98.424 c0-9.577,7.792-17.369,17.369-17.369c9.577,0,17.369,7.792,17.369,17.369s-7.792,17.369-17.369,17.369 C243.334,115.793,235.542,108.002,235.542,98.424z"></path> <path d="M493.376,443.682c-55.767,0-83.158-18.706-112.157-38.511c-29.215-19.951-59.4-40.536-116.728-42.394v-87.132 c13.085-20.214,32.035-26.444,42.409-28.362c4.193,7.607,10.722,13.971,19.061,18.402c7.305,3.883,15.365,5.887,23.2,5.887 c3.811,0,7.569-0.474,11.161-1.437c31.959-8.563,49.271-49.485,51.14-54.124c1.928-4.783,0.459-10.266-3.602-13.446 c-3.937-3.082-39.395-29.867-71.352-21.302c-10.978,2.942-21.014,10.609-27.531,21.035c-4.424,7.077-6.874,14.758-7.266,22.443 c-9.769,1.942-23.845,6.455-37.221,16.92v-46.495c8.923-2.638,16.653-8.256,21.888-15.941 c12.916,2.451,26.444-1.516,36.129-11.202c9.686-9.687,13.651-23.218,11.203-36.129c10.86-7.399,17.625-19.769,17.625-33.468 c0-13.698-6.766-26.07-17.625-33.468c2.448-12.911-1.517-26.443-11.203-36.129c-9.686-9.686-23.22-13.649-36.129-11.202 C278.981,6.765,266.61,0,252.911,0c-13.698,0-26.07,6.765-33.468,17.625c-12.91-2.449-26.443,1.516-36.129,11.202 c-9.686,9.686-13.651,23.218-11.203,36.129c-10.859,7.399-17.625,19.771-17.625,33.468s6.765,26.069,17.625,33.468 c-2.448,12.911,1.517,26.441,11.203,36.129c9.685,9.686,23.215,13.649,36.129,11.203c5.235,7.685,12.967,13.303,21.888,15.941 v99.588c-13.386-10.473-27.474-14.987-37.245-16.927c-1.007-19.555-15.04-38.185-34.779-43.473 c-31.953-8.564-67.413,18.22-71.35,21.302c-4.062,3.18-5.53,8.661-3.602,13.446c1.869,4.639,19.181,45.562,51.139,54.124 c3.805,1.02,7.672,1.504,11.517,1.504c17.119-0.001,33.727-9.617,41.889-24.351c10.332,1.92,29.342,8.147,42.43,28.364v34.312 c-53.355,3.085-82.404,22.895-110.551,42.117c-28.999,19.804-56.39,38.511-112.157,38.511c-6.394,0-11.579,5.184-11.579,11.579 v45.159c0,6.395,5.185,11.579,11.579,11.579h474.753c6.394,0,11.579-5.184,11.579-11.579V455.26 C504.955,448.866,499.771,443.682,493.376,443.682z M328.615,214.573c3.395-5.431,8.587-9.521,13.888-10.941 c2.283-0.611,4.688-0.886,7.169-0.886c12.542,0,26.931,7.018,36.363,12.873c-6.281,11.729-17.878,28.442-31.705,32.148 c-5.306,1.422-11.845,0.476-17.499-2.531c-3.394-1.804-9.384-5.94-11.378-13.383 C323.458,224.409,326.578,217.832,328.615,214.573z M180.367,284.942c-3.276,12.224-18.474,18.703-28.879,15.915 c-13.823-3.704-25.42-20.413-31.697-32.134c11.194-6.905,29.771-15.689,43.524-12.001 C173.716,259.509,183.641,272.718,180.367,284.942z M236.349,161.569c-1.032-3.26-3.449-5.896-6.609-7.205 c-1.422-0.589-2.926-0.881-4.43-0.881c-1.836,0-3.668,0.437-5.337,1.303c-6.746,3.504-14.898,2.243-20.281-3.14 c-5.383-5.382-6.645-13.534-3.14-20.281c1.575-3.034,1.73-6.609,0.421-9.768c-1.308-3.159-3.945-5.578-7.206-6.609 c-7.25-2.294-12.121-8.95-12.121-16.562c0-7.612,4.871-14.268,12.121-16.562c3.258-1.032,5.896-3.45,7.205-6.608 s1.154-6.733-0.42-9.768c-3.505-6.748-2.244-14.899,3.14-20.282c5.381-5.383,13.534-6.643,20.282-3.14 c3.033,1.576,6.606,1.731,9.768,0.421c3.159-1.308,5.577-3.945,6.608-7.205c2.293-7.25,8.948-12.121,16.561-12.121 c7.612,0,14.268,4.871,16.563,12.121c1.032,3.26,3.449,5.896,6.608,7.205c3.16,1.308,6.733,1.154,9.768-0.421 c6.751-3.504,14.9-2.243,20.282,3.14c5.383,5.382,6.645,13.534,3.14,20.282c-1.575,3.035-1.729,6.609-0.42,9.768 c1.308,3.159,3.945,5.577,7.205,6.608c7.25,2.294,12.121,8.95,12.121,16.562c0,7.612-4.871,14.268-12.121,16.562 c-3.26,1.032-5.897,3.451-7.206,6.609s-1.153,6.733,0.422,9.768c3.505,6.748,2.244,14.899-3.14,20.282 c-5.381,5.382-13.534,6.644-20.281,3.14c-3.036-1.576-6.609-1.731-9.768-0.422c-3.16,1.308-5.578,3.945-6.609,7.205 c-2.294,7.249-8.951,12.12-16.563,12.12C245.299,173.69,238.643,168.819,236.349,161.569z M481.797,488.841H30.202v-22.255 c55.346-2.48,84.949-22.698,113.64-42.29c28.999-19.804,56.39-38.51,112.157-38.51s83.158,18.706,112.157,38.51 c28.689,19.592,58.294,39.81,113.64,42.29V488.841z"></path> <path d="M274.409,409.752c-5.767-0.536-11.961-0.809-18.409-0.809c-6.394,0-11.579,5.184-11.579,11.579 s5.185,11.579,11.579,11.579c5.734,0,11.206,0.239,16.263,0.71c0.365,0.034,0.727,0.05,1.086,0.05 c5.91,0,10.958-4.504,11.516-10.507C285.458,415.988,280.777,410.345,274.409,409.752z"></path> <path d="M348.808,439.138c-4.401-2.977-9.639-6.462-15.113-9.747c-5.484-3.29-12.598-1.512-15.887,3.971 c-3.291,5.484-1.513,12.596,3.971,15.887c5,3,9.912,6.27,14.057,9.074c1.988,1.344,4.244,1.988,6.476,1.988 c3.715,0,7.363-1.784,9.602-5.094C355.496,449.92,354.105,442.721,348.808,439.138z"></path> </g> </g> </g> </g></svg>