<svg fill="#ffffff" version="1.1" id="Capa_1" xmlns="http://www.w3.org/2000/svg" xmlns:xlink="http://www.w3.org/1999/xlink" viewBox="0 0 106.953 106.953" xml:space="preserve"><g id="SVGRepo_bgCarrier" stroke-width="0"></g><g id="SVGRepo_tracerCarrier" stroke-linecap="round" stroke-linejoin="round"></g><g id="SVGRepo_iconCarrier"> <g> <path d="M72.7,19.489c-5.779-4.507-11.505-9.168-13.072-17.003c-0.603-2.989-2.156-3.207-4.147-1.059 c-1.588,1.711-2.896,3.746-4.69,5.186c-10.112,8.145-20.552,15.525-27.914,26.974c-6.497,10.099-9.577,19.56-5.471,30.948 c2.484,6.902,9.363,10.674,16.74,10.26c4.031-0.223,7.884-0.951,11.82-1.564c6.206-0.965,6.372-0.824,6.235,5.373 c-0.228,10.328,2.521,19.732,8.17,28.35l2.666-2.643c-5.068-8.572-7.337-17.429-6.889-27.229c0.261-5.801,1.533-6.902,7.098-5.418 c0.903,0.24,1.759,0.647,2.662,0.9c10.034,2.851,24.314-6.427,25.301-16.412C92.802,40.003,84.678,28.826,72.7,19.489z M52.843,75.903c0-0.01,0.123-0.017,0.28-0.027C53.016,75.903,52.914,75.91,52.843,75.903z M74.558,40.77 c-1.704,0.672-3.493,1.254-5.226,1.826c-7.005,2.284-14.246,4.651-17.399,13.192c-0.011,0.031-0.031,0.075-0.088,0.15l-0.478,0.644 l0.131,0.787c0.371,2.248,0.903,4.504,1.411,6.684c0.901,3.85,0.909,7.487,0.999,11.139c0.004,0.056-0.023,0.11-0.062,0.168 c-0.074-1.988-0.318-4.104-0.78-6.618l-0.097-0.523l-0.385-0.428c-6.577-7.684-9.048-8.228-16.739-12.18 c-3.561-1.828-7.188-3.931-9.011-7.769c-0.094-0.204-0.066-0.234-0.003-0.298c0.167-0.183,0.323,0.659,0.518,0.736 c0.033,0.014,0.257,0.452,0.397,0.613c3.297,3.856,6.966,5.014,11.213,6.927c1.247,0.561,2.433,1.468,3.487,2.029 c1.923,1.029,3.792,2.351,5.701,4.034l4.243,3.733l-1.163-5.526c-0.876-4.165-1.593-8.646-0.907-13.157 c0.466-3.047,1.899-5.855,3.421-8.826l0.251-0.491l0.047-0.32c0.01-0.09,0.023-0.132,0.037-0.164 c0.137-0.322,0.273-0.637,0.411-0.95c1.002-2.253,2.375-5.333-0.613-8.326l-0.578-0.578c-1.388-1.371-2.587-2.555-3.273-4.177 c-0.087-0.221-0.06-0.308,0.05-0.418c0.185-0.188,0.118,0.2,0.266,0.257c0.07,0.027,0.123,0.144,0.153,0.214 c0.729,1.73,2.384,2.685,3.508,3.77c0.272,0.26,0.543,0.334,0.803,0.601l2.475,2.525l0.701-3.465 c0.376-1.848,0.951-3.722,1.229-5.533c0.329-2.127,1.232-4.328,1.701-6.438c0.027-0.126,0.082-0.214,0.15-0.287 c-0.448,2.007-0.753,4.046-1.03,5.968l-0.431,3.021l2.892-0.977c0.232-0.077,0.465-0.154,0.712-0.21 c0.561-0.137,1.163-0.221,1.8-0.313c1.163-0.167,2.744,0.13,3.963-0.362c0.195-0.083,0.277-0.05,0.305-0.04 c0.041,0.014,0.051,0.014,0.062,0.017c-0.024,0-0.068,0.025-0.068,0.133c0,0.091,0.003,0.154-0.216,0.241 c-1.17,0.478-2.45,0.678-3.806,0.895l-0.756,0.122c-1.551,0.256-3.313,0.702-4.6,2.745c-0.065,0.104-0.109,0.133-0.113,0.137 l-0.663,0.424l-0.161,0.77c-0.223,1.054-0.418,1.858-0.637,2.604c-0.763,2.611-1.931,5.039-3.165,7.604 c-1.099,2.274-2.227,4.628-3.062,7.135c-0.414,1.244-0.708,2.529-0.896,3.92l-0.835,6.112l4.095-4.608 c3.552-4.005,8.809-5.842,14.366-7.794c1.711-0.599,3.949-0.563,5.725-1.261c0.199-0.077,0.284-0.046,0.315-0.031 c0.198,0.075,0.38,0.382,0.38,0.626C75.233,41.292,74.764,40.689,74.558,40.77z"></path> </g> </g></svg>