<svg fill="#FFFFFF" height="200px" width="200px" version="1.1" id="Layer_1" xmlns="http://www.w3.org/2000/svg" xmlns:xlink="http://www.w3.org/1999/xlink" viewBox="0 0 511.998 511.998" xml:space="preserve" stroke="#FFFFFF"><g id="SVGRepo_bgCarrier" stroke-width="0"></g><g id="SVGRepo_tracerCarrier" stroke-linecap="round" stroke-linejoin="round"></g><g id="SVGRepo_iconCarrier"> <g> <g> <g> <path d="M476.57,310.676c-5.743-1.539-11.657,1.869-13.2,7.616l-0.419,1.562c-1.543,5.748,1.867,11.659,7.616,13.201 c0.934,0.25,1.874,0.371,2.799,0.371c4.757,0,9.111-3.174,10.402-7.987l0.419-1.562 C485.729,318.129,482.32,312.218,476.57,310.676z"></path> <path d="M486.464,273.721c-5.748-1.542-11.657,1.876-13.195,7.626l-0.418,1.562c-1.539,5.749,1.875,11.657,7.626,13.196 c0.932,0.25,1.869,0.369,2.791,0.369c4.76,0,9.116-3.178,10.404-7.994l0.418-1.562 C495.629,281.166,492.215,275.258,486.464,273.721z"></path> <path d="M62.306,413.882c1.697,0.981,3.551,1.446,5.379,1.446c3.724,0,7.346-1.932,9.343-5.389 c2.977-5.154,1.21-11.744-3.943-14.721l-1.4-0.808c-5.156-2.979-11.745-1.209-14.722,3.943 c-2.977,5.154-1.21,11.744,3.943,14.721L62.306,413.882z"></path> <path d="M27.778,393.947l1.401,0.808c1.696,0.979,3.549,1.444,5.375,1.444c3.726,0,7.349-1.933,9.344-5.393 c2.975-5.154,1.207-11.745-3.947-14.72l-1.401-0.808c-5.157-2.975-11.747-1.206-14.72,3.949 C20.855,384.382,22.623,390.973,27.778,393.947z"></path> <path d="M470.159,448.417c-51.901,0-77.394-17.41-104.383-35.841c-26.7-18.234-54.254-37.049-105.762-39.357v-38.133 c9.046-34.147,22.993-55.307,41.457-62.893c13.812-5.674,27.655-2.369,35.597,0.608c-0.845,8.422,0.807,16.886,4.914,24.546 c5.603,10.453,15.385,18.208,26.838,21.277c5.852,1.568,11.832,1.891,17.779,0.961c14.122-2.205,27.498-1.66,39.755,1.624 l2.579,0.691c0.918,0.246,1.855,0.367,2.789,0.367c1.875,0,3.736-0.49,5.388-1.444c2.475-1.429,4.282-3.783,5.021-6.544 l10.32-38.515c0.74-2.761,0.352-5.703-1.077-8.177c-1.429-2.474-3.784-4.282-6.544-5.021l-0.528-0.141 c-14.219-3.811-26.557-10.037-36.668-18.509c-5.389-4.514-11.908-7.672-18.853-9.13c-17.359-3.64-34.715,3.752-44.333,17.753 c-11.401-4.25-30.692-8.579-50.882-0.4c-13.061,5.291-24.265,14.857-33.552,28.575v-75.157 c5.962,4.703,12.419,8.847,19.318,12.317c0.258,0.13,0.519,0.249,0.787,0.358c5.663,2.301,11.942,3.32,18.351,3.32 c17.111,0,35.131-7.271,44.676-16.845c13.182-13.143,21.989-42.268,13.547-63.049c-0.109-0.267-0.227-0.529-0.357-0.787 c-5.683-11.295-13.139-21.432-21.955-30.106c8.812-8.671,16.275-18.793,21.955-30.084c0.129-0.258,0.248-0.521,0.357-0.787 c8.441-20.778-0.365-49.905-13.525-63.026C330.026,3.682,300.902-5.121,280.12,3.318c-0.267,0.109-0.529,0.227-0.787,0.358 c-11.294,5.681-21.43,13.139-30.106,21.954c-8.671-8.812-18.794-16.275-30.085-21.954c-0.258-0.129-0.521-0.248-0.787-0.357 c-20.78-8.441-49.906,0.366-63.025,13.525c-13.183,13.143-21.99,42.269-13.547,63.05c0.109,0.267,0.227,0.529,0.357,0.786 c5.681,11.295,13.139,21.432,21.954,30.107c-8.812,8.671-16.275,18.793-21.954,30.084c-0.129,0.258-0.248,0.519-0.357,0.787 c-8.433,20.759,0.348,49.845,13.509,63.007c0.005,0.005,0.011,0.012,0.016,0.018c0.003,0.003,0.006,0.006,0.01,0.009 c0.004,0.004,0.009,0.01,0.013,0.014c0.013,0.013,0.028,0.024,0.042,0.038c9.578,9.562,27.559,16.807,44.636,16.807 c6.407,0,12.687-1.021,18.347-3.32c0.267-0.109,0.529-0.227,0.787-0.357c6.897-3.469,13.356-7.608,19.319-12.306v95.196 c-5.029-11.594-10.388-21.646-16.068-30.044c-12.838-18.984-27.653-30.324-44.033-33.707 c-30.058-6.213-55.307,16.173-65.894,27.54c-17.624-4.689-36.774,2.268-47.091,18.066c-3.882,5.941-6.259,12.783-6.875,19.787 c-1.16,13.14-5.48,26.267-12.839,39.013l-0.274,0.473c-1.43,2.475-1.819,5.417-1.08,8.178c0.74,2.762,2.547,5.117,5.022,6.546 L83.86,376.55c1.652,0.955,3.513,1.444,5.388,1.444c0.934,0,1.872-0.122,2.79-0.367c2.761-0.74,5.115-2.547,6.543-5.022 l1.334-2.311c6.345-10.99,15.417-20.835,26.963-29.26c4.862-3.548,8.864-8.007,11.892-13.252 c5.928-10.268,7.362-22.669,3.932-34.023c-2.11-6.985-5.844-13.145-10.863-18.114c9.098-8.751,25.318-21.003,42.159-17.527 c17.609,3.637,42.954,25.644,63.695,109.832c0.183,0.741,0.765,5.267,0.765,5.267c-51.508,2.309-79.062,21.123-105.762,39.357 c-26.989,18.431-52.481,35.841-104.383,35.841c-5.951,0-10.777,4.825-10.777,10.777v42.029c0,5.952,4.826,10.777,10.777,10.777 h441.843c5.951,0,10.777-4.825,10.777-10.777v-42.029C480.936,453.241,476.111,448.417,470.159,448.417z M359.568,270.047 c3.417-10.145,14.303-16.37,24.786-14.168c3.54,0.744,6.716,2.277,9.439,4.557c10.113,8.472,21.903,15.102,35.151,19.779 l-4.924,18.377c-6.738-1.261-13.682-1.891-20.801-1.891c-6.513,0-13.174,0.529-19.948,1.587 c-2.959,0.463-5.947,0.299-8.873-0.485c-5.811-1.557-10.576-5.337-13.42-10.642C358.137,281.863,357.637,275.784,359.568,270.047 z M120.106,317.006c-1.516,2.626-3.512,4.853-5.931,6.619c-11.59,8.458-21.18,18.197-28.598,29.028L69.1,343.141 c6.061-12.675,9.71-25.701,10.869-38.843c0.313-3.537,1.473-6.867,3.452-9.895c5.857-8.968,17.953-12.266,27.545-7.509 c5.423,2.691,9.367,7.342,11.105,13.099C123.811,305.755,123.113,311.798,120.106,317.006z M249.238,132.597 c-11.884,0-21.553-9.669-21.553-21.553c0-11.884,9.669-21.553,21.553-21.553c11.885,0,21.553,9.669,21.553,21.553 C270.791,122.928,261.122,132.597,249.238,132.597z M336.872,150.138c4.817,12.573-2.037,32.418-8.966,39.326 c-6.886,6.907-26.734,13.762-39.304,8.943c-9.725-4.953-18.375-11.535-25.666-19.331c7.471-11.19,12.994-23.703,16.176-37.002 c8.148-7.846,13.233-18.853,13.233-31.031c0-1.162-0.059-2.311-0.151-3.45C311.267,116.218,327.183,131.122,336.872,150.138z M288.602,23.141c12.573-4.818,32.418,2.036,39.326,8.965c6.907,6.886,13.761,26.732,8.944,39.304 c-4.954,9.724-11.537,18.374-19.333,25.665c-11.379-7.596-24.125-13.176-37.674-16.33c-7.818-7.903-18.659-12.808-30.626-12.808 c-1.11,0-2.206,0.056-3.294,0.139C254.548,48.887,269.497,32.872,288.602,23.141z M161.604,71.41 c-4.817-12.573,2.036-32.417,8.966-39.326c6.885-6.907,26.732-13.76,39.304-8.942c9.724,4.954,18.375,11.536,25.665,19.332 c-7.599,11.381-13.174,24.132-16.327,37.685c-8.06,7.837-13.081,18.784-13.081,30.887c0,0.973,0.044,1.935,0.108,2.892 C187.183,105.311,171.285,90.415,161.604,71.41z M209.873,198.408c-12.569,4.815-32.416-2.036-39.302-8.942 c-0.004-0.004-0.009-0.008-0.012-0.011c-0.004-0.004-0.008-0.009-0.011-0.012c-6.907-6.886-13.76-26.73-8.942-39.305 c4.953-9.724,11.536-18.373,19.332-25.664c11.195,7.474,23.712,12.998,37.016,16.178c7.863,8.302,18.974,13.498,31.285,13.498 c1.026,0,2.04-0.048,3.048-0.12C243.642,172.973,228.794,188.771,209.873,198.408z M459.383,490.446H39.093v-20.713 c51.509-2.308,79.061-21.124,105.762-39.359c26.989-18.431,52.481-35.841,104.383-35.841c51.902,0,77.394,17.41,104.383,35.841 c26.7,18.234,54.253,37.05,105.762,39.359V490.446z"></path> <path d="M335.612,444.188c-4.096-2.771-8.971-6.014-14.066-9.072c-5.104-3.062-11.724-1.407-14.786,3.695 c-3.063,5.104-1.409,11.723,3.695,14.786c4.653,2.792,9.225,5.836,13.083,8.445c1.85,1.251,3.95,1.85,6.027,1.85 c3.457,0,6.853-1.661,8.936-4.741C341.837,454.222,340.543,447.522,335.612,444.188z"></path> <path d="M266.372,416.839c-5.367-0.499-11.132-0.753-17.133-0.753c-5.951,0-10.777,4.825-10.777,10.777 s4.826,10.777,10.777,10.777c5.337,0,10.43,0.222,15.136,0.661c0.339,0.031,0.677,0.046,1.011,0.046 c5.5,0,10.198-4.192,10.717-9.779C276.654,422.642,272.298,417.392,266.372,416.839z"></path> </g> </g> </g> </g></svg>