<svg fill="#FFFFFF" version="1.1" id="Layer_1" xmlns="http://www.w3.org/2000/svg" xmlns:xlink="http://www.w3.org/1999/xlink" viewBox="0 0 511.998 511.998" xml:space="preserve" stroke="#FFFFFF"><g id="SVGRepo_bgCarrier" stroke-width="0"></g><g id="SVGRepo_tracerCarrier" stroke-linecap="round" stroke-linejoin="round"></g><g id="SVGRepo_iconCarrier"> <g> <g> <path d="M426.706,293.804c-0.956-3.571-3.747-6.359-7.318-7.312c-34.93-9.322-72.491,0.751-98.031,26.29 c-24.103,24.102-34.421,58.914-27.671,92.114l-27.36,27.36V325.388c6.431,3.101,14.064,4.882,22.333,4.882 c4.039,0,8.042-0.442,11.901-1.314c3.499-0.791,6.229-3.521,7.022-7.018c0.866-3.822,1.305-7.827,1.305-11.905 c0-7.953-1.701-15.566-4.827-22.097c29.529-16.789,49.491-48.538,49.491-84.865V44.289c0-5.709-4.628-10.336-10.336-10.336 h-15.659c-6.954,0-13.946,0.436-20.863,1.286c-13.352-13.971-28.804-25.445-46.015-34.13c-2.928-1.477-6.385-1.478-9.314,0 c-17.256,8.708-32.723,20.182-46.059,34.134c-6.84-0.846-13.805-1.288-20.87-1.288h-15.655c-5.709,0-10.336,4.627-10.336,10.336 v108.29c-0.001,0.054-0.008,0.107-0.008,0.16v0.062c0,0.054,0.007,0.106,0.008,0.16v50.106c0,0.04,0.005,0.079,0.006,0.119 c0.042,36.273,19.987,67.97,49.476,84.742c-3.127,6.534-4.829,14.151-4.829,22.105c0,4.104,0.444,8.12,1.322,11.935 c0.8,3.482,3.525,6.197,7.009,6.987c3.85,0.872,7.856,1.315,11.907,1.315c8.263,0,15.891-1.78,22.318-4.878v131.945 l-27.355-27.355c6.775-33.193-3.539-68.011-27.66-92.133c-25.56-25.56-63.133-35.624-98.052-26.273 c-3.571,0.956-6.359,3.747-7.312,7.319c-9.323,34.928,0.751,72.492,26.291,98.03c19.245,19.245,45.315,29.707,71.943,29.707 c6.721,0,13.479-0.675,20.171-2.036l41.977,41.977v15.09c0,5.709,4.627,10.336,10.336,10.336c5.708,0,10.336-4.627,10.336-10.336 v-19.365c0-0.003,0-0.007,0-0.01v-20.794L308.3,419.52c6.708,1.37,13.48,2.048,20.219,2.048c26.608,0,52.668-10.463,71.914-29.709 C425.992,366.299,436.059,328.726,426.706,293.804z M147.839,388.758l37.182,37.182c-21.742,0.415-43.143-7.935-58.84-23.632 c-18.893-18.892-27.158-46.051-22.285-72.118c26.06-4.891,53.219,3.372,72.126,22.278c15.714,15.714,24.066,37.129,23.634,58.872 l-37.198-37.199c-4.036-4.036-10.581-4.036-14.618,0C143.803,378.176,143.803,384.721,147.839,388.758z M304.377,56.423 c7.638-1.194,15.437-1.798,23.18-1.798c0,0,5.322,0,5.322,0v67.491c-13.035-23.807-31.626-44.156-54.023-59.285 C287.14,59.952,295.667,57.791,304.377,56.423z M256.021,22.016c9.299,5.113,17.973,11.191,25.956,18.158 c-8.922,2.493-17.62,5.727-26.03,9.666c-8.304-3.892-16.971-7.131-25.939-9.643C237.997,33.228,246.689,27.144,256.021,22.016z M245.653,301.512c-2.993,5.731-12.143,10.154-22.317,10.154c-0.535,0-1.069-0.011-1.599-0.035 c-0.023-0.528-0.034-1.062-0.034-1.598c0-5.307,1.158-10.381,3.211-14.49c6.625,2.234,13.568,3.771,20.739,4.53V301.512z M256.001,279.951c-42.392-0.001-76.879-34.489-76.879-76.88c0-0.03-0.004-0.06-0.004-0.09V54.626h5.319 c72.217,0,132.544,51.841,145.746,120.261c0.042,0.995,0.22,1.953,0.525,2.857c1.421,8.232,2.17,16.692,2.17,25.323 c0,0.013,0.002,0.027,0.002,0.041C332.858,245.483,298.38,279.951,256.001,279.951z M266.327,301.497v-1.423 c7.173-0.758,14.117-2.295,20.744-4.527c2.054,4.107,3.211,9.178,3.211,14.486c0,0.535-0.011,1.069-0.033,1.598 c-0.528,0.023-1.057,0.034-1.59,0.034C278.473,311.665,269.315,307.236,266.327,301.497z M385.815,377.24 c-15.713,15.713-37.129,24.065-58.871,23.634l37.198-37.198c4.036-4.036,4.036-10.581,0-14.618c-4.037-4.036-10.58-4.035-14.618,0 l-37.184,37.184c-0.414-21.742,7.937-43.146,23.633-58.842c18.893-18.893,46.054-27.161,72.118-22.285 C412.985,331.172,404.723,358.333,385.815,377.24z"></path> </g> </g> <g> <g> <path d="M255.991,252.542c-26.884,0-48.756-21.872-48.756-48.756c0-5.709-4.627-10.336-10.336-10.336s-10.336,4.627-10.336,10.336 c0,38.284,31.145,69.428,69.428,69.428c5.708,0,10.336-4.627,10.336-10.336S261.698,252.542,255.991,252.542z"></path> </g> </g> </g></svg>