<svg fill="#FFFFFF"  version="1.1" id="Layer_1" xmlns="http://www.w3.org/2000/svg" xmlns:xlink="http://www.w3.org/1999/xlink" viewBox="0 0 511.998 511.998" xml:space="preserve" transform="matrix(1, 0, 0, 1, 0, 0)"><g id="SVGRepo_bgCarrier" stroke-width="0"></g><g id="SVGRepo_tracerCarrier" stroke-linecap="round" stroke-linejoin="round"></g><g id="SVGRepo_iconCarrier"> <g> <g> <g> <path d="M237.77,471.125h18.591c5.94,0,10.757-4.816,10.757-10.757c0-5.941-4.817-10.757-10.757-10.757H237.77 c-5.94,0-10.757,4.816-10.757,10.757C227.013,466.309,231.83,471.125,237.77,471.125z"></path> <path d="M282.519,314.972c8.13,7.047,19.64,10.403,31.253,10.403c9.568,0,19.204-2.274,27.05-6.624 c30.349-16.822,36.707-60.063,36.963-61.896c0.66-4.739-1.887-9.345-6.253-11.303c-1.692-0.759-41.795-18.389-72.148-1.561 c-9.787,5.424-18.625,15.242-23.644,26.261c-4.119,9.041-5.419,17.986-3.915,26.043l-14.003,8.499v-59.754h7.53 c5.94,0,10.757-4.816,10.757-10.757c0-5.941-4.817-10.757-10.757-10.757h-7.53v-24.849c6.157,0.97,23.938,4.837,27.025,17.38 c1.207,4.905,5.601,8.188,10.437,8.188c0.851,0,1.717-0.102,2.578-0.314c5.769-1.42,9.295-7.247,7.874-13.016 c-2.928-11.894-10.669-19.646-19.121-24.7c3.855-2.417,7.475-5.389,10.754-8.902c11.922-12.772,18.295-31.04,17.483-50.121 c-0.888-20.852,4.027-41.573,13.839-58.349c1.92-3.283,1.964-7.336,0.115-10.66c-1.849-3.324-5.315-5.424-9.119-5.524 l-15.934-0.42c-2.26-0.087-4.519-0.068-6.77,0.047c1.331-7.282,3.358-14.374,6.109-21.079c1.483-3.616,0.889-7.752-1.553-10.803 c-2.443-3.051-6.347-4.538-10.199-3.884l-15.793,2.683c-4.209,0.663-8.364,1.69-12.426,3.037 c-11.697-10.082-26.076-17.039-41.125-19.407l-15.789-2.683c-3.853-0.655-7.759,0.832-10.201,3.883 c-2.443,3.051-3.037,7.188-1.553,10.803c4.836,11.794,7.502,24.766,7.914,37.901c-3.968-0.475-7.98-0.652-11.997-0.498 l-15.934,0.42c-3.803,0.1-7.27,2.2-9.119,5.524s-1.805,7.377,0.115,10.66c9.812,16.776,14.727,37.497,13.839,58.348 c-0.812,19.081,5.56,37.35,17.483,50.121c4.516,4.839,9.675,8.666,15.22,11.394c-6.906,5.013-12.857,12.116-15.341,22.206 c-1.42,5.769,2.105,11.596,7.873,13.017c0.864,0.213,1.729,0.314,2.58,0.314c4.835,0,9.23-3.283,10.437-8.188 c2.134-8.67,11.292-13.193,18.779-15.482v48.946h-17.749c-5.94,0-10.757,4.816-10.757,10.757c0,5.941,4.817,10.757,10.757,10.757 h17.749v26.893h-4.841c-5.94,0-10.757,4.816-10.757,10.757c0,5.941,4.817,10.757,10.757,10.757h4.841v20.439h-91.436 c-3.263,0-6.349,1.48-8.392,4.026c-2.041,2.545-2.817,5.88-2.109,9.065l10.683,48.074l16.085,101.871 c0.826,5.228,5.332,9.079,10.626,9.079H322.36c5.294,0,9.8-3.851,10.626-9.079l16.085-101.871l10.683-48.074 c0.708-3.185-0.068-6.52-2.109-9.065c-2.042-2.545-5.129-4.026-8.392-4.026h-91.436v-9.921L282.519,314.972z M295.319,279.172 c3.129-6.872,8.684-13.142,14.495-16.363c6.163-3.415,13.26-4.621,20.222-4.621c9.31,0,18.37,2.16,24.581,4.079 c-2.956,10.974-9.918,29.737-24.224,37.667c-11.091,6.144-31.015,5.226-36.203-4.134 C291.941,291.744,292.352,285.684,295.319,279.172z M277.454,40.704c-1.295,5.272-2.255,10.655-2.896,16.094 c-10.205,3.645-19.643,9.347-27.501,16.733c-2.801-2.633-5.801-5.053-8.966-7.241C247.338,53.103,261.855,43.579,277.454,40.704z M217.216,156.322c-0.002,0.09-0.003,0.181-0.003,0.271v10.247c-1.859-1.359-3.44-2.827-4.728-4.206 c-8.013-8.584-12.283-21.169-11.715-34.526c0.8-18.795-2.388-37.579-9.095-54.384c15.567-0.466,31.016,5.77,41.838,16.618 C223.39,106.937,217.905,129.061,217.216,156.322z M223.769,49.572c-0.426-8.548-1.653-17.026-3.671-25.239 c7.623,1.405,14.982,4.406,21.597,8.639C234.978,37.619,228.9,43.22,223.769,49.572z M319.627,449.61h-1.296 c-5.94,0-10.757,4.816-10.757,10.757c0,5.233,3.738,9.589,8.689,10.554l-3.089,19.564H180.956l-3.089-19.564 c4.95-0.965,8.689-5.32,8.689-10.554c0-5.941-4.817-10.757-10.757-10.757h-1.296l-6.284-39.804h157.694L319.627,449.61z M335.848,361.399l-5.976,26.893H164.258l-5.977-26.893H335.848z M245.64,171.809c-2.276-0.071-4.584-0.144-6.913-0.197v-14.88 c0.699-27.045,6.477-47.565,17.171-60.992c0.045-0.057,0.09-0.114,0.134-0.172c10.727-14.044,28.488-22.385,46.422-21.844 c-6.706,16.805-9.896,35.589-9.096,54.385c0.568,13.357-3.701,25.942-11.715,34.526c-3.876,4.151-10.367,9.149-19.287,9.385 C256.889,172.162,251.426,171.992,245.64,171.809z"></path> </g> </g> </g> </g></svg>